<mxfile host="app.diagrams.net" modified="2021-01-06T09:20:55.143Z" agent="5.0 (Windows NT 10.0; Win64; x64) AppleWebKit/537.36 (KHTML, like Gecko) Chrome/87.0.4280.88 Safari/537.36" etag="1_LiQTBiK4Al1begTGJ2" version="14.1.8" type="github">
  <diagram id="hpfmOyAsiqtUEWlXZgno" name="Page-1">
    <mxGraphModel dx="1422" dy="715" grid="1" gridSize="10" guides="1" tooltips="1" connect="1" arrows="1" fold="1" page="1" pageScale="1" pageWidth="827" pageHeight="1169" math="0" shadow="0">
      <root>
        <mxCell id="0" />
        <mxCell id="1" parent="0" />
        <mxCell id="FOYWbe_bQR-YTCnEjWv6-3" value="" style="whiteSpace=wrap;html=1;aspect=fixed;" vertex="1" parent="1">
          <mxGeometry x="160" y="50" width="230" height="230" as="geometry" />
        </mxCell>
        <mxCell id="FOYWbe_bQR-YTCnEjWv6-1" value="cif ile arama&lt;br&gt;" style="rounded=1;whiteSpace=wrap;html=1;" vertex="1" parent="1">
          <mxGeometry x="220" y="130" width="120" height="60" as="geometry" />
        </mxCell>
        <mxCell id="FOYWbe_bQR-YTCnEjWv6-2" value="mektup no ile arama&lt;br&gt;" style="rounded=1;whiteSpace=wrap;html=1;" vertex="1" parent="1">
          <mxGeometry x="220" y="200" width="120" height="60" as="geometry" />
        </mxCell>
        <mxCell id="FOYWbe_bQR-YTCnEjWv6-4" value="Muhasebenin çağırdığı Nlsapicreditexternalservice&lt;br&gt;" style="text;html=1;strokeColor=none;fillColor=none;align=center;verticalAlign=middle;whiteSpace=wrap;rounded=0;" vertex="1" parent="1">
          <mxGeometry x="275" y="80" width="40" height="20" as="geometry" />
        </mxCell>
        <mxCell id="FOYWbe_bQR-YTCnEjWv6-6" value="" style="endArrow=classic;html=1;exitX=1;exitY=0.75;exitDx=0;exitDy=0;" edge="1" parent="1" source="FOYWbe_bQR-YTCnEjWv6-1">
          <mxGeometry width="50" height="50" relative="1" as="geometry">
            <mxPoint x="390" y="360" as="sourcePoint" />
            <mxPoint x="460" y="175" as="targetPoint" />
          </mxGeometry>
        </mxCell>
        <mxCell id="FOYWbe_bQR-YTCnEjWv6-7" value="Mektup- nlsguaranteeletters&lt;br&gt;" style="rounded=0;whiteSpace=wrap;html=1;" vertex="1" parent="1">
          <mxGeometry x="460" y="140" width="120" height="60" as="geometry" />
        </mxCell>
        <mxCell id="FOYWbe_bQR-YTCnEjWv6-8" value="" style="endArrow=classic;html=1;exitX=1;exitY=0.75;exitDx=0;exitDy=0;entryX=0;entryY=0.75;entryDx=0;entryDy=0;" edge="1" parent="1" source="FOYWbe_bQR-YTCnEjWv6-2" target="FOYWbe_bQR-YTCnEjWv6-7">
          <mxGeometry width="50" height="50" relative="1" as="geometry">
            <mxPoint x="390" y="340" as="sourcePoint" />
            <mxPoint x="440" y="290" as="targetPoint" />
          </mxGeometry>
        </mxCell>
        <mxCell id="FOYWbe_bQR-YTCnEjWv6-9" value="" style="endArrow=classic;html=1;exitX=0.5;exitY=1;exitDx=0;exitDy=0;" edge="1" parent="1" source="FOYWbe_bQR-YTCnEjWv6-7">
          <mxGeometry width="50" height="50" relative="1" as="geometry">
            <mxPoint x="390" y="340" as="sourcePoint" />
            <mxPoint x="520" y="320" as="targetPoint" />
          </mxGeometry>
        </mxCell>
        <mxCell id="FOYWbe_bQR-YTCnEjWv6-10" value="vergiden muafmı bu mektup komisyonu&lt;br&gt;" style="rounded=1;whiteSpace=wrap;html=1;" vertex="1" parent="1">
          <mxGeometry x="460" y="320" width="120" height="60" as="geometry" />
        </mxCell>
        <mxCell id="FOYWbe_bQR-YTCnEjWv6-11" value="" style="endArrow=classic;html=1;exitX=0.5;exitY=1;exitDx=0;exitDy=0;strokeColor=#FF1434;strokeWidth=2;entryX=0.538;entryY=0.01;entryDx=0;entryDy=0;entryPerimeter=0;" edge="1" parent="1" source="FOYWbe_bQR-YTCnEjWv6-10" target="FOYWbe_bQR-YTCnEjWv6-12">
          <mxGeometry width="50" height="50" relative="1" as="geometry">
            <mxPoint x="390" y="330" as="sourcePoint" />
            <mxPoint x="520" y="460" as="targetPoint" />
          </mxGeometry>
        </mxCell>
        <mxCell id="FOYWbe_bQR-YTCnEjWv6-15" value="" style="edgeStyle=orthogonalEdgeStyle;rounded=0;orthogonalLoop=1;jettySize=auto;html=1;strokeColor=#FF1434;strokeWidth=2;" edge="1" parent="1" source="FOYWbe_bQR-YTCnEjWv6-12" target="FOYWbe_bQR-YTCnEjWv6-14">
          <mxGeometry relative="1" as="geometry" />
        </mxCell>
        <mxCell id="FOYWbe_bQR-YTCnEjWv6-12" value="Mektubun Teşvik belgesi varmı (mektup.incentive_document_id)&lt;br&gt;varsa kriterleri uygunmu ( nls_incentive_documents)" style="rounded=1;whiteSpace=wrap;html=1;" vertex="1" parent="1">
          <mxGeometry x="410" y="440" width="210" height="100" as="geometry" />
        </mxCell>
        <mxCell id="FOYWbe_bQR-YTCnEjWv6-14" value="nls_incentive_documents" style="rounded=1;whiteSpace=wrap;html=1;" vertex="1" parent="1">
          <mxGeometry x="455" y="620" width="120" height="60" as="geometry" />
        </mxCell>
        <mxCell id="FOYWbe_bQR-YTCnEjWv6-16" value="" style="endArrow=classic;html=1;strokeWidth=2;strokeColor=#3333FF;exitX=0;exitY=0.5;exitDx=0;exitDy=0;" edge="1" parent="1" source="FOYWbe_bQR-YTCnEjWv6-10" target="FOYWbe_bQR-YTCnEjWv6-17">
          <mxGeometry width="50" height="50" relative="1" as="geometry">
            <mxPoint x="390" y="510" as="sourcePoint" />
            <mxPoint x="330" y="400" as="targetPoint" />
          </mxGeometry>
        </mxCell>
        <mxCell id="FOYWbe_bQR-YTCnEjWv6-17" value="Mektubun online bakanlık belgeli varmı (mektup.certificateNo)&lt;br&gt;varsa kriterleri uygunmu ( &lt;font color=&quot;#0000ff&quot;&gt;nakit servis yazacak bizde implemente edeceğiz NlsCertificateIntegrationService) TODO&lt;/font&gt;" style="rounded=1;whiteSpace=wrap;html=1;" vertex="1" parent="1">
          <mxGeometry x="140" y="360" width="240" height="90" as="geometry" />
        </mxCell>
        <mxCell id="FOYWbe_bQR-YTCnEjWv6-18" value="nlscertificateDTO- map edilecek -nlsincentiveDocumentDTO" style="rounded=1;whiteSpace=wrap;html=1;" vertex="1" parent="1">
          <mxGeometry x="235" y="600" width="155" height="100" as="geometry" />
        </mxCell>
        <mxCell id="FOYWbe_bQR-YTCnEjWv6-19" value="" style="edgeStyle=orthogonalEdgeStyle;rounded=0;orthogonalLoop=1;jettySize=auto;html=1;strokeColor=#FF1434;strokeWidth=2;entryX=1;entryY=0.5;entryDx=0;entryDy=0;exitX=0;exitY=0.5;exitDx=0;exitDy=0;" edge="1" parent="1" source="FOYWbe_bQR-YTCnEjWv6-14" target="FOYWbe_bQR-YTCnEjWv6-18">
          <mxGeometry relative="1" as="geometry">
            <mxPoint x="525" y="550" as="sourcePoint" />
            <mxPoint x="525" y="630" as="targetPoint" />
          </mxGeometry>
        </mxCell>
        <mxCell id="FOYWbe_bQR-YTCnEjWv6-20" value="Business kuralların kontrolleri" style="rounded=1;whiteSpace=wrap;html=1;" vertex="1" parent="1">
          <mxGeometry x="30" y="600" width="155" height="100" as="geometry" />
        </mxCell>
        <mxCell id="FOYWbe_bQR-YTCnEjWv6-21" value="" style="edgeStyle=orthogonalEdgeStyle;rounded=0;orthogonalLoop=1;jettySize=auto;html=1;strokeColor=#FF1434;strokeWidth=2;entryX=1;entryY=0.5;entryDx=0;entryDy=0;exitX=0;exitY=0.5;exitDx=0;exitDy=0;" edge="1" parent="1" target="FOYWbe_bQR-YTCnEjWv6-20" source="FOYWbe_bQR-YTCnEjWv6-18">
          <mxGeometry relative="1" as="geometry">
            <mxPoint x="190" y="650" as="sourcePoint" />
            <mxPoint x="260" y="630" as="targetPoint" />
          </mxGeometry>
        </mxCell>
        <mxCell id="FOYWbe_bQR-YTCnEjWv6-22" value="" style="endArrow=classic;html=1;strokeWidth=2;strokeColor=#3333FF;" edge="1" parent="1" source="FOYWbe_bQR-YTCnEjWv6-17" target="FOYWbe_bQR-YTCnEjWv6-18">
          <mxGeometry width="50" height="50" relative="1" as="geometry">
            <mxPoint x="470" y="360" as="sourcePoint" />
            <mxPoint x="390" y="382" as="targetPoint" />
          </mxGeometry>
        </mxCell>
        <mxCell id="FOYWbe_bQR-YTCnEjWv6-23" value="" style="endArrow=classic;html=1;strokeWidth=2;strokeColor=#3333FF;exitX=1.013;exitY=0.643;exitDx=0;exitDy=0;entryX=0;entryY=1;entryDx=0;entryDy=0;exitPerimeter=0;" edge="1" parent="1" source="FOYWbe_bQR-YTCnEjWv6-3" target="FOYWbe_bQR-YTCnEjWv6-7">
          <mxGeometry width="50" height="50" relative="1" as="geometry">
            <mxPoint x="470" y="360" as="sourcePoint" />
            <mxPoint x="390" y="382" as="targetPoint" />
          </mxGeometry>
        </mxCell>
        <mxCell id="FOYWbe_bQR-YTCnEjWv6-24" value="" style="endArrow=classic;html=1;strokeWidth=2;strokeColor=#3333FF;exitX=0.25;exitY=1;exitDx=0;exitDy=0;entryX=0.25;entryY=0;entryDx=0;entryDy=0;" edge="1" parent="1" source="FOYWbe_bQR-YTCnEjWv6-7" target="FOYWbe_bQR-YTCnEjWv6-10">
          <mxGeometry width="50" height="50" relative="1" as="geometry">
            <mxPoint x="402.99" y="207.89" as="sourcePoint" />
            <mxPoint x="470" y="210" as="targetPoint" />
          </mxGeometry>
        </mxCell>
      </root>
    </mxGraphModel>
  </diagram>
</mxfile>
